<mxfile host="app.diagrams.net" agent="Mozilla/5.0 (Windows NT 10.0; Win64; x64) AppleWebKit/537.36 (KHTML, like Gecko) Chrome/130.0.0.0 Safari/537.36" version="24.8.3">
  <diagram name="Page-1" id="lmwBjhlTVjfdz_8rSz0Z">
    <mxGraphModel dx="625" dy="654" grid="1" gridSize="10" guides="1" tooltips="1" connect="1" arrows="1" fold="1" page="1" pageScale="1" pageWidth="850" pageHeight="1100" math="0" shadow="0">
      <root>
        <mxCell id="0" />
        <mxCell id="1" parent="0" />
        <mxCell id="RXX17aKGSC6OlVybVhoN-1" value="&lt;u&gt;5.2&lt;/u&gt;&lt;div&gt;Create Appointment&lt;/div&gt;" style="ellipse;whiteSpace=wrap;html=1;aspect=fixed;" parent="1" vertex="1">
          <mxGeometry x="360" y="190" width="80" height="80" as="geometry" />
        </mxCell>
        <mxCell id="RXX17aKGSC6OlVybVhoN-2" value="&lt;u&gt;5.1&lt;/u&gt;&lt;div&gt;Assign Patient to GP&lt;/div&gt;" style="ellipse;whiteSpace=wrap;html=1;aspect=fixed;" parent="1" vertex="1">
          <mxGeometry x="360" y="60" width="80" height="80" as="geometry" />
        </mxCell>
        <mxCell id="RXX17aKGSC6OlVybVhoN-3" value="General Practitioner" style="shape=partialRectangle;whiteSpace=wrap;html=1;left=0;right=0;fillColor=none;" parent="1" vertex="1">
          <mxGeometry x="640" y="140" width="80" height="40" as="geometry" />
        </mxCell>
        <mxCell id="RXX17aKGSC6OlVybVhoN-4" value="Accept Appointment" style="html=1;verticalAlign=bottom;endArrow=block;curved=0;rounded=0;" parent="1" source="RXX17aKGSC6OlVybVhoN-3" target="RXX17aKGSC6OlVybVhoN-2" edge="1">
          <mxGeometry width="80" relative="1" as="geometry">
            <mxPoint x="500" y="160" as="sourcePoint" />
            <mxPoint x="580" y="160" as="targetPoint" />
          </mxGeometry>
        </mxCell>
        <mxCell id="RXX17aKGSC6OlVybVhoN-5" value="Virtual&amp;nbsp;&lt;div&gt;Triage&lt;/div&gt;" style="shape=partialRectangle;whiteSpace=wrap;html=1;left=0;right=0;fillColor=none;" parent="1" vertex="1">
          <mxGeometry x="130" y="80" width="80" height="40" as="geometry" />
        </mxCell>
        <mxCell id="RXX17aKGSC6OlVybVhoN-7" value="" style="html=1;verticalAlign=bottom;endArrow=block;curved=0;rounded=0;" parent="1" source="RXX17aKGSC6OlVybVhoN-5" target="RXX17aKGSC6OlVybVhoN-2" edge="1">
          <mxGeometry width="80" relative="1" as="geometry">
            <mxPoint x="260" y="150" as="sourcePoint" />
            <mxPoint x="340" y="150" as="targetPoint" />
          </mxGeometry>
        </mxCell>
        <mxCell id="FxqJOd0t4ipzE0LaNOd2-1" value="Patient Appointment" style="edgeLabel;html=1;align=center;verticalAlign=middle;resizable=0;points=[];" vertex="1" connectable="0" parent="RXX17aKGSC6OlVybVhoN-7">
          <mxGeometry x="0.0911" y="3" relative="1" as="geometry">
            <mxPoint x="-5" y="1" as="offset" />
          </mxGeometry>
        </mxCell>
        <mxCell id="RXX17aKGSC6OlVybVhoN-8" value="Patient and GP&lt;div&gt;Information&lt;/div&gt;" style="html=1;verticalAlign=bottom;endArrow=block;curved=0;rounded=0;" parent="1" source="RXX17aKGSC6OlVybVhoN-2" target="RXX17aKGSC6OlVybVhoN-1" edge="1">
          <mxGeometry x="0.6" width="80" relative="1" as="geometry">
            <mxPoint x="320" y="160" as="sourcePoint" />
            <mxPoint x="400" y="160" as="targetPoint" />
            <mxPoint as="offset" />
          </mxGeometry>
        </mxCell>
        <mxCell id="RXX17aKGSC6OlVybVhoN-9" value="&lt;u&gt;5.3&lt;/u&gt;&lt;div&gt;Diagnose Patient&lt;/div&gt;" style="ellipse;whiteSpace=wrap;html=1;aspect=fixed;" parent="1" vertex="1">
          <mxGeometry x="360" y="320" width="80" height="80" as="geometry" />
        </mxCell>
        <mxCell id="RXX17aKGSC6OlVybVhoN-10" value="Diagnoses" style="html=1;verticalAlign=bottom;endArrow=block;curved=0;rounded=0;exitX=0.25;exitY=1;exitDx=0;exitDy=0;" parent="1" source="RXX17aKGSC6OlVybVhoN-3" target="RXX17aKGSC6OlVybVhoN-9" edge="1">
          <mxGeometry width="80" relative="1" as="geometry">
            <mxPoint x="550" y="250" as="sourcePoint" />
            <mxPoint x="630" y="250" as="targetPoint" />
          </mxGeometry>
        </mxCell>
        <mxCell id="RXX17aKGSC6OlVybVhoN-11" value="Patient" style="shape=partialRectangle;whiteSpace=wrap;html=1;left=0;right=0;fillColor=none;" parent="1" vertex="1">
          <mxGeometry x="130" y="210" width="80" height="40" as="geometry" />
        </mxCell>
        <mxCell id="RXX17aKGSC6OlVybVhoN-12" value="Diagnoses" style="html=1;verticalAlign=bottom;endArrow=block;curved=0;rounded=0;" parent="1" source="RXX17aKGSC6OlVybVhoN-9" target="RXX17aKGSC6OlVybVhoN-11" edge="1">
          <mxGeometry width="80" relative="1" as="geometry">
            <mxPoint x="250" y="330" as="sourcePoint" />
            <mxPoint x="330" y="330" as="targetPoint" />
          </mxGeometry>
        </mxCell>
        <mxCell id="RXX17aKGSC6OlVybVhoN-13" value="Add to Appointment" style="html=1;verticalAlign=bottom;endArrow=block;curved=0;rounded=0;" parent="1" source="RXX17aKGSC6OlVybVhoN-1" target="RXX17aKGSC6OlVybVhoN-11" edge="1">
          <mxGeometry width="80" relative="1" as="geometry">
            <mxPoint x="260" y="180" as="sourcePoint" />
            <mxPoint x="340" y="180" as="targetPoint" />
          </mxGeometry>
        </mxCell>
        <mxCell id="RXX17aKGSC6OlVybVhoN-14" value="Add to Appointment" style="html=1;verticalAlign=bottom;endArrow=block;curved=0;rounded=0;" parent="1" source="RXX17aKGSC6OlVybVhoN-1" target="RXX17aKGSC6OlVybVhoN-3" edge="1">
          <mxGeometry width="80" relative="1" as="geometry">
            <mxPoint x="470" y="220" as="sourcePoint" />
            <mxPoint x="550" y="220" as="targetPoint" />
          </mxGeometry>
        </mxCell>
      </root>
    </mxGraphModel>
  </diagram>
</mxfile>
